<svg xmlns="http://www.w3.org/2000/svg" viewBox="0 0 500 500"><g id="freepik--background-complete--inject-76"><path d="M414.79,362.65l13.36-.28,6.58-.11c2.19-.05,4.36,0,6.54-.06l-.44.45-.06-11.19.5.5L428,351.89c-4.41,0-8.82-.11-13.24-.16l.28-.27c0,1.83-.09,3.67-.14,5.53Zm0,0-.14-5.54c0-1.87-.11-3.75-.13-5.65v-.27h.27c4.42-.05,8.83-.15,13.24-.16l13.24-.06h.5v.5l0,11.19v.45h-.45c-2.23,0-4.47,0-6.69,0l-6.66-.11Z" style="fill:#ebebeb"></path><path d="M429.56,376.76l13.36-.28,6.58-.11c2.19-.05,4.36,0,6.54-.06l-.44.45-.05-11.19.49.5L442.8,366c-4.41,0-8.82-.11-13.24-.16l.28-.27c0,1.83-.09,3.67-.13,5.53Zm0,0-.14-5.54c0-1.87-.11-3.75-.13-5.65v-.27h.27c4.42-.05,8.83-.15,13.24-.16l13.24-.06h.51v.5l-.05,11.19v.45H456c-2.23,0-4.46,0-6.69-.05l-6.66-.11Z" style="fill:#ebebeb"></path><path d="M400,376.76l13.36-.28,6.58-.11c2.18-.05,4.36,0,6.54-.06l-.44.45L426,365.57l.5.5L413.26,366c-4.41,0-8.83-.11-13.24-.16l.27-.27c0,1.83-.08,3.67-.13,5.53Zm0,0-.14-5.54c-.05-1.87-.11-3.75-.13-5.65v-.27H400c4.41-.05,8.83-.15,13.24-.16l13.24-.06h.5v.5L427,376.76v.45h-.44c-2.23,0-4.47,0-6.69-.05l-6.66-.11Z" style="fill:#ebebeb"></path><path d="M209.8,112l13.36-.28,6.58-.11c2.18,0,4.36,0,6.54,0l-.44.44-.06-11.19.5.5L223,101.21c-4.41,0-8.83-.11-13.24-.17l.27-.27c0,1.83-.08,3.67-.13,5.54Zm0,0-.14-5.53c0-1.87-.11-3.76-.13-5.66v-.27h.27c4.41,0,8.83-.16,13.24-.17l13.24-.06h.5v.5L236.73,112v.45h-.44c-2.23,0-4.47,0-6.69-.06l-6.66-.11Z" style="fill:#ebebeb"></path><path d="M58.73,376.76l13.35-.28,6.58-.11c2.19-.05,4.37,0,6.55-.06l-.45.45-.05-11.19.5.5L72,366c-4.42,0-8.83-.11-13.24-.16l.27-.27c0,1.83-.09,3.67-.13,5.53Zm0,0-.15-5.54c0-1.87-.11-3.75-.13-5.65v-.27h.28c4.41-.05,8.82-.15,13.24-.16l13.24-.06h.5v.5l-.06,11.19v.45h-.44c-2.23,0-4.47,0-6.7-.05L71.85,377Z" style="fill:#ebebeb"></path><path d="M58.73,57.85l13.35-.28,6.58-.11c2.19-.05,4.37,0,6.55-.06l-.45.45-.05-11.19.5.5L72,47.09c-4.42,0-8.83-.11-13.24-.16l.27-.27c0,1.83-.09,3.67-.13,5.53Zm0,0-.15-5.54c0-1.87-.11-3.75-.13-5.65v-.27h.28c4.41-.05,8.82-.15,13.24-.16l13.24-.06h.5v.5l-.06,11.19v.45h-.44c-2.23,0-4.47,0-6.7,0l-6.66-.11Z" style="fill:#ebebeb"></path><path d="M44,72l13.35-.28,6.58-.11c2.19,0,4.36,0,6.55-.06L70,72l0-11.19.5.5L57.2,61.2c-4.42,0-8.83-.11-13.24-.16l.27-.27c0,1.83-.09,3.67-.13,5.53Zm0,0-.15-5.54c0-1.87-.11-3.75-.13-5.65V60.5H44c4.41-.05,8.82-.15,13.24-.16l13.24-.06h.5v.5L70.88,72v.45h-.44c-2.24,0-4.47,0-6.7-.05l-6.66-.11Z" style="fill:#ebebeb"></path><path d="M429.56,57.86l13.36-.28,6.58-.11c2.19,0,4.36,0,6.54-.06l-.44.45-.05-11.19.49.5-13.24-.06c-4.41,0-8.82-.12-13.24-.17l.28-.27c0,1.83-.09,3.67-.13,5.54Zm0,0-.14-5.54c0-1.86-.11-3.75-.13-5.65V46.4h.27c4.42,0,8.83-.16,13.24-.17L456,46.17h.51v.5l-.05,11.19v.45H456c-2.23,0-4.46,0-6.69-.06l-6.66-.11Z" style="fill:#ebebeb"></path><path d="M193.79,289.31l-13.36.27-6.58.12c-2.19,0-4.36,0-6.54.05l.44-.44.06,11.18-.5-.49,13.24.06c4.41,0,8.82.11,13.24.16l-.28.27c0-1.83.09-3.67.13-5.53Zm0,0,.14,5.53c0,1.87.11,3.76.13,5.65v.27h-.27c-4.42.05-8.83.16-13.24.16l-13.24.06h-.51v-.51l.05-11.18v-.45h.45c2.23,0,4.46,0,6.69.05l6.66.12Z" style="fill:#ebebeb"></path><path d="M179,275.2l-13.35.27-6.58.12c-2.19,0-4.36,0-6.55.05l.45-.44.05,11.19-.5-.5,13.24.06c4.42,0,8.83.11,13.24.16l-.27.28c0-1.84.09-3.68.13-5.54Zm0,0,.15,5.53c0,1.87.11,3.76.13,5.66v.26H179c-4.41,0-8.82.16-13.24.16l-13.24.06H152v-.5l.06-11.19v-.45h.44c2.24,0,4.47,0,6.7.05l6.66.12Z" style="fill:#ebebeb"></path><circle cx="110.29" cy="90.99" r="33.27" transform="translate(-14.47 160.82) rotate(-68.76)" style="fill:#ebebeb"></circle><circle cx="111.82" cy="91.73" r="31.74" style="fill:#dbdbdb"></circle><circle cx="111.82" cy="91.73" r="29.74" transform="translate(7.38 191.77) rotate(-83.13)" style="fill:#fff"></circle><path d="M140.88,85.41c-13.54,8.21-35.8,21.67-48.24,29.05a29.71,29.71,0,0,1-8.12-10.93L125.66,65.4A29.78,29.78,0,0,1,140.88,85.41Z" style="fill:#ebebeb;opacity:0.5"></path><path d="M141.53,92.76a29.58,29.58,0,0,1-2,9.67L102.48,120a29.56,29.56,0,0,1-4.69-2C109,111.48,129.47,99.7,141.53,92.76Z" style="fill:#ebebeb;opacity:0.5"></path><rect x="111.53" y="64.15" width="0.57" height="4.51" style="fill:#c7c7c7"></rect><rect x="98.87" y="67.54" width="0.58" height="4.51" transform="translate(-21.61 58.92) rotate(-30)" style="fill:#c7c7c7"></rect><rect x="89.6" y="76.81" width="0.57" height="4.51" transform="translate(-23.53 117.37) rotate(-60)" style="fill:#c7c7c7"></rect><rect x="84.24" y="91.44" width="4.51" height="0.57" style="fill:#c7c7c7"></rect><rect x="87.63" y="104.1" width="4.51" height="0.57" transform="translate(-40.15 58.93) rotate(-30)" style="fill:#c7c7c7"></rect><rect x="96.9" y="113.37" width="4.51" height="0.58" transform="translate(-48.84 142.79) rotate(-60.03)" style="fill:#c7c7c7"></rect><rect x="111.53" y="114.8" width="0.57" height="4.51" style="fill:#c7c7c7"></rect><rect x="124.19" y="111.41" width="0.58" height="4.51" transform="translate(-40.15 77.47) rotate(-30)" style="fill:#c7c7c7"></rect><rect x="133.46" y="102.14" width="0.57" height="4.51" transform="translate(-23.53 168.02) rotate(-60)" style="fill:#c7c7c7"></rect><rect x="134.89" y="91.44" width="4.51" height="0.57" style="fill:#c7c7c7"></rect><rect x="131.5" y="78.78" width="4.51" height="0.57" transform="translate(-21.61 77.47) rotate(-30)" style="fill:#c7c7c7"></rect><rect x="122.23" y="69.51" width="4.51" height="0.58" transform="translate(1.84 142.76) rotate(-60.03)" style="fill:#c7c7c7"></rect><polygon points="112.25 66.19 113.23 93.73 110.41 93.7 111.48 66.18 112.25 66.19" style="fill:#c7c7c7"></polygon><polygon points="129.41 82.12 110.87 93.95 109.53 91.47 129.04 81.45 129.41 82.12" style="fill:#a6a6a6"></polygon><path d="M112.78,91.73a1,1,0,1,1-1-1A1,1,0,0,1,112.78,91.73Z" style="fill:#c7c7c7"></path><rect x="290.11" y="46.66" width="125.78" height="163.33" style="fill:#dbdbdb"></rect><rect x="298.06" y="54.8" width="51.56" height="70.44" style="fill:#fff"></rect><rect x="356.39" y="54.8" width="51.56" height="70.44" style="fill:#fff"></rect><rect x="298.06" y="131.4" width="51.56" height="70.44" style="fill:#fff"></rect><rect x="356.39" y="131.4" width="51.56" height="70.44" style="fill:#fff"></rect><rect x="260.11" y="46.66" width="34.53" height="220.9" style="fill:#ebebeb"></rect><polygon points="288.1 60.49 288.36 91.94 288.46 103.39 288.64 166.3 288.46 209.21 288.36 210.66 288.1 242.11 287.83 210.66 287.73 209.21 287.55 166.3 287.73 103.39 287.83 91.94 288.1 60.49" style="fill:#fff"></polygon><polygon points="272.24 67.78 272.51 75.87 272.66 103.95 272.79 160.12 272.66 196.29 272.51 214.37 272.24 222.46 271.97 214.37 271.82 196.29 271.69 160.12 271.82 103.95 271.97 75.87 272.24 67.78" style="fill:#fff"></polygon><polygon points="280.17 74.41 280.43 87.3 280.53 120.18 280.71 165.95 280.53 211.72 280.44 234.61 280.17 267.49 279.9 234.61 279.8 211.72 279.62 165.95 279.81 120.18 279.9 87.3 280.17 74.41" style="fill:#fff"></polygon><polygon points="266.34 62.15 266.61 76.56 266.71 110.98 266.89 179.82 266.71 208.66 266.61 233.07 266.34 267.49 266.07 233.07 265.98 208.66 265.8 179.82 265.98 110.98 266.08 76.56 266.34 62.15" style="fill:#fff"></polygon><rect x="411.37" y="46.66" width="34.53" height="220.9" transform="translate(857.26 314.21) rotate(180)" style="fill:#ebebeb"></rect><polygon points="417.91 60.49 418.18 91.94 418.28 103.39 418.46 166.3 418.28 209.21 418.18 210.66 417.91 242.11 417.64 210.66 417.55 209.21 417.37 166.3 417.55 103.39 417.65 91.94 417.91 60.49" style="fill:#fff"></polygon><polygon points="433.77 67.78 434.03 75.87 434.19 103.95 434.31 160.12 434.19 196.29 434.04 214.37 433.77 222.46 433.5 214.37 433.35 196.29 433.22 160.12 433.35 103.95 433.5 75.87 433.77 67.78" style="fill:#fff"></polygon><polygon points="425.84 74.41 426.11 87.3 426.2 120.18 426.39 165.95 426.2 211.72 426.11 234.61 425.84 267.49 425.57 234.61 425.48 211.72 425.29 165.95 425.48 120.18 425.57 87.3 425.84 74.41" style="fill:#fff"></polygon><polygon points="439.66 62.15 439.93 76.56 440.03 110.98 440.21 179.82 440.03 208.66 439.93 233.07 439.66 267.49 439.4 233.07 439.3 208.66 439.12 179.82 439.3 110.98 439.4 76.56 439.66 62.15" style="fill:#fff"></polygon><polygon points="194.93 411.88 91.08 411.88 86.89 329.26 199.12 329.26 194.93 411.88" style="fill:#ebebeb"></polygon><path d="M99.2,338.4h87.6l-1.57,28.68H101Zm86.53,1H100.28L102,366.06h82.26Z" style="fill:#dbdbdb"></path><path d="M101,374.19h82.24l-1.29,25.89H102.6Zm81.17,1H102.06l1.49,23.86H181Z" style="fill:#dbdbdb"></path><path d="M134.14,348.93h15.93l-.9,6.92H135Zm14.77,1H135.29l.63,4.88h12.36Z" style="fill:#dbdbdb"></path><path d="M134.14,383.67h15.93l-.9,6.92H135Zm14.77,1H135.29l.63,4.88h12.36Z" style="fill:#dbdbdb"></path><polygon points="176.87 411.88 178.13 420.88 180.68 438.97 185.65 438.97 185.65 411.88 176.87 411.88" style="fill:#ebebeb"></polygon><polygon points="176.87 411.88 178.13 420.88 185.65 420.88 185.65 411.88 176.87 411.88" style="fill:#dbdbdb"></polygon><polygon points="109.14 411.88 107.87 420.88 105.33 438.97 100.35 438.97 100.35 411.88 109.14 411.88" style="fill:#ebebeb"></polygon><polygon points="109.14 411.88 107.87 420.88 100.35 420.88 100.35 411.88 109.14 411.88" style="fill:#dbdbdb"></polygon></g><g id="freepik--Floor--inject-76"><polygon points="44.35 438.97 95.76 438.72 147.18 438.63 250 438.47 352.82 438.63 404.24 438.72 455.65 438.97 404.24 439.21 352.82 439.3 250 439.46 147.18 439.3 95.76 439.21 44.35 438.97" style="fill:#263238"></polygon></g><g id="freepik--Table--inject-76"><rect x="81.6" y="246.84" width="336.8" height="11.98" style="fill:#37474f"></rect><rect x="93.66" y="258.82" width="312.69" height="11.97" style="fill:#455a64"></rect><polygon points="93.68 438.85 88.84 438.85 102.93 270.8 115.29 270.8 93.68 438.85" style="fill:#455a64"></polygon><polygon points="115.29 270.8 113.84 282.04 101.99 282.04 102.93 270.8 115.29 270.8" style="fill:#263238"></polygon><polygon points="406.32 438.85 411.16 438.85 397.07 270.8 384.71 270.8 406.32 438.85" style="fill:#455a64"></polygon><polygon points="384.71 270.8 386.16 282.04 398.01 282.04 397.07 270.8 384.71 270.8" style="fill:#263238"></polygon></g><g id="freepik--Plant--inject-76"><path d="M131.56,333.15c-3.57-3.49-8.17-7.71-13.62-6.21-5.13,1.42-7.09,7-8,11.68-1.19,6-2.11,12.07-3.06,18.12S105,369,104.13,375.08c-.5,3.46-1,6.91-1.47,10.37l-.72,5.18c-.23,1.69-.52,3.39-.61,5.1,0,.54.82.62.94.1.66-2.88.94-5.88,1.36-8.8s.85-5.88,1.28-8.83q1.29-8.76,2.62-17.52t2.72-17.51c.79-4.94,1.17-11.09,5.55-14.35a8.48,8.48,0,0,1,8.2-.77c2.89,1.1,5.2,3.16,7.45,5.21C131.52,333.32,131.63,333.22,131.56,333.15Z" style="fill:#263238"></path><path d="M126.68,329.58s-7.28-2.62-10.88,2.7.7,18.83,33.87,26.46a93.7,93.7,0,0,0-8-30C134.58,313.26,121.91,319.13,126.68,329.58Z" style="fill:#407BFF"></path><path d="M147.76,356.53a24.09,24.09,0,0,0-1.67-2.69q-.83-1.29-1.68-2.55c-.42-.64-.86-1.27-1.3-1.9,0-.16,0-.32.07-.48s.07-.57.11-.86c.08-.62.17-1.24.26-1.86s.2-1.24.32-1.85a9.93,9.93,0,0,1,.43-2c0-.09-.13-.14-.14,0a8.11,8.11,0,0,1-.3,1.1c-.08.28-.15.56-.22.84-.16.63-.32,1.26-.46,1.89s-.24,1.17-.34,1.76c-.05.29-.09.57-.13.86-.59-.85-1.19-1.68-1.81-2.5-1.77-2.32-3.63-4.55-5.56-6.73,0,0,0,0,0-.06.18-3.49.09-6.94.86-10.36,0-.1-.11-.15-.14-.06a36.18,36.18,0,0,0-1.24,9.92c-.69-.77-1.39-1.54-2.09-2.3-1.62-1.74-3.26-3.45-4.94-5.12-.07-.07-.18,0-.11.1,2.79,3,5.45,6.14,8,9.33a58.35,58.35,0,0,0-6.06.23c-2.25.16-4.48.45-6.72.76-.09,0-.06.16,0,.15a60.16,60.16,0,0,1,6.71-.6c2.16-.09,4.31,0,6.47,0q2.1,2.6,4.14,5.23H140c-.51,0-1,0-1.53,0-1,0-2,.09-3,.17a46.57,46.57,0,0,0-6.12.92.08.08,0,0,0,0,.15c2-.23,4.08-.43,6.13-.5,1,0,2,0,2.94,0H140a1.78,1.78,0,0,0,.84-.08c.89,1.16,1.79,2.32,2.67,3.48.7.93,1.4,1.87,2.08,2.81s1.33,2,2.1,2.91A.07.07,0,0,0,147.76,356.53Z" style="fill:#263238"></path><path d="M129.85,337.11a22,22,0,0,0-3.54-.17c-1.19,0-2.37,0-3.56.08a.08.08,0,1,0,0,.15c1.2-.09,2.4-.11,3.6-.09s2.33.13,3.49.09C129.89,337.17,129.89,337.12,129.85,337.11Z" style="fill:#263238"></path><path d="M140.26,339.79c.14-1.13.28-2.27.52-3.39,0-.1-.13-.14-.14,0-.17,1.12-.39,2.22-.56,3.34-.08.56-.15,1.12-.22,1.68a7,7,0,0,0-.14,1.58.1.1,0,0,0,.2,0,10.32,10.32,0,0,0,.17-1.58C140.14,340.86,140.2,340.33,140.26,339.79Z" style="fill:#263238"></path><path d="M138.08,327.24c-.29,1.1-.58,2.22-.78,3.34q-.15.85-.27,1.71a7.31,7.31,0,0,0-.11,1.68s.07,0,.09,0a9.42,9.42,0,0,0,.26-1.59c.07-.55.16-1.1.25-1.65.2-1.16.41-2.3.7-3.44C138.24,327.2,138.1,327.14,138.08,327.24Z" style="fill:#263238"></path><path d="M95.39,394.89c-.18-2.09-.39-4.17-.61-6.26-.43-4.13-.94-8.25-1.49-12.37S92.21,368,91.55,364a31.63,31.63,0,0,0-1.27-5.59,5.31,5.31,0,0,0-3.09-3.49c-3.9-1.35-6.54,2.7-8.11,5.56,0,.09.07.15.13.08.94-1.36,3.55-5.17,6.51-5,2,.12,3.58,1.53,4.54,6.5,2.38,12.37,4.53,37.48,4.78,39.13.13.87.75.83.75-.1C95.81,399,95.57,396.94,95.39,394.89Z" style="fill:#263238"></path><path d="M80.13,358.89s3.41-12-4.13-6c-12.55,10-13,31.83-13,31.83s22.31-13,25.09-21.5C92.22,350.46,80.13,358.89,80.13,358.89Z" style="fill:#407BFF"></path><path d="M84.35,364.81c-1.75.35-3.52.58-5.29.84l-2.51.35c-.57.08-1.14.13-1.71.2,1.66-2.29,3.34-4.57,4.93-6.9.06-.09-.08-.19-.15-.11a53,53,0,0,0-3.73,4.3c-.32-.93-.66-1.86-1-2.8s-.79-2.15-1.07-3.26c0-.09-.16-.05-.14,0,.31,1.11.52,2.24.82,3.34s.61,2.13,1,3.17c-.81,1.06-1.6,2.14-2.36,3.24-.38-1.09-.86-2.14-1.19-3.24,0-.1-.18-.05-.15,0,.4,1.22.62,2.49,1,3.72-.51.75-1,1.5-1.51,2.25-.9,1.4-1.75,2.81-2.58,4.24a.34.34,0,0,0-.2.34c-1.41,2.43-2.75,4.91-4.07,7.41-.05.08.09.15.13.07,1.33-2.47,2.8-4.87,4.33-7.23h0a3.26,3.26,0,0,1,.73-.14l.77-.17c.57-.12,1.15-.27,1.72-.41,1.13-.28,2.25-.55,3.4-.75.09,0,0-.16,0-.14-1.36.25-2.71.41-4.08.57-.64.07-1.28.15-1.92.26H69.4q1.2-1.83,2.43-3.63c.82-1.17,1.65-2.33,2.48-3.49.78-.11,1.55-.31,2.31-.46l2.59-.5c1.73-.35,3.45-.73,5.19-1C84.49,364.93,84.45,364.79,84.35,364.81Z" style="fill:#263238"></path><path d="M70.94,366l-.3-.95a20.59,20.59,0,0,1-.51-2c0-.1-.16-.06-.14,0,.14.68.3,1.36.46,2a12.82,12.82,0,0,0,.58,2c.06.15.31.09.26-.08C71.19,366.67,71.06,366.34,70.94,366Z" style="fill:#263238"></path><path d="M86.63,362c-1,.15-2,.22-3.06.31s-2,.23-3.07.39c-.06,0-.06.09,0,.09,1-.07,2-.15,3.07-.29s2-.28,3.07-.35C86.74,362.16,86.73,362,86.63,362Z" style="fill:#263238"></path><path d="M106.09,379.65c-.4-8.87-1-17.72-1.85-26.56-.44-4.39-.94-8.79-1.56-13.17a95.4,95.4,0,0,0-2.54-12.74,24.48,24.48,0,0,0-4.24-9,9.63,9.63,0,0,0-8.58-3.74c-3.88.48-7,2.92-9.71,5.58-3,3-5.8,6.23-8.61,9.42l-2.12,2.43c-.06.08.05.18.11.11,2.75-3.16,5.6-6.22,8.58-9.15,2.76-2.71,5.6-5.67,9.43-6.79a9.7,9.7,0,0,1,5.47-.13,8.71,8.71,0,0,1,3.74,2.37,19.66,19.66,0,0,1,4.22,8.2c2.38,8.15,3.24,16.7,4.12,25.11s1.51,17.13,1.94,25.72.77,17.27,1.6,25.88c.1,1.06.24,2.12.37,3.18.09.71,1.2.71,1.14,0C106.9,397.46,106.49,388.56,106.09,379.65Z" style="fill:#263238"></path><path d="M77.13,321s5.06-9.37-.92-12.38-26,19.35-31.86,52c0,0,32.34-14.31,43.32-28.57S86.21,314.68,77.13,321Z" style="fill:#407BFF"></path><path d="M81.88,328.61c-3.63,0-7.26-.28-10.89-.25L73,326a34.4,34.4,0,0,0,2.85-3.3c.05-.08-.06-.18-.14-.13A27.56,27.56,0,0,0,73,325.35c-.91,1-1.81,1.94-2.71,2.92-1.39,1.5-2.76,3-4.11,4.56,0-.15,0-.3,0-.44v-1.91c0-1.23,0-2.47,0-3.7,0-2.5,0-5,.19-7.5,0-.1-.14-.1-.15,0-.17,2.51-.43,5-.55,7.51-.06,1.24-.09,2.47-.11,3.7,0,.64,0,1.28,0,1.91,0,.35,0,.72,0,1.07l-.65.72c-2.9,3.31-5.66,6.74-8.34,10.23a5.67,5.67,0,0,0-.05-.58l-.12-1.15c-.1-.84-.21-1.67-.34-2.5s-.24-1.56-.37-2.33-.36-1.76-.43-2.65c0-.1-.17-.08-.14,0a23.53,23.53,0,0,1,.3,2.66c.08.8.15,1.6.22,2.4s.15,1.6.23,2.4c0,.38.07.77.11,1.15,0,.19.05.39.08.58a1.13,1.13,0,0,0,.15.46l-1.38,1.8c-1.84,2.43-3.64,4.88-5.44,7.33-.05.08,0,.19.11.11,1.71-2.23,3.46-4.41,5.24-6.57,1.33.05,2.69,0,4-.07s2.8,0,4.21,0c.09,0,.09-.15,0-.15-1.4,0-2.8.05-4.21.05s-2.58-.06-3.86,0q2.36-2.85,4.73-5.67l1.74-2.06a7.3,7.3,0,0,0,1.62.05h1.91c1.2,0,2.39,0,3.59-.05,2.47,0,4.94-.12,7.41-.12.09,0,.09-.15,0-.15-2.47,0-4.94-.14-7.41-.2-1.2,0-2.39-.07-3.59-.09l-1.91,0c-.37,0-.74,0-1.11,0,1.36-1.61,2.71-3.22,4.08-4.83,0,0,0,0,.07-.08,1.33-1.57,2.65-3.13,4-4.68l.56-.63c3.77.11,7.53-.13,11.29-.06A.07.07,0,1,0,81.88,328.61Z" style="fill:#263238"></path><path d="M80,335h-.88c-.09,0-.08.14,0,.14H80C80.12,335.19,80.12,335,80,335Z" style="fill:#263238"></path><path d="M78.06,335.05c-1.16,0-2.32,0-3.49-.08l-1.75-.05a6.27,6.27,0,0,0-1.62,0,.05.05,0,0,0,0,.1,6,6,0,0,0,1.63.12l1.75,0c1.16,0,2.32,0,3.49,0C78.16,335.2,78.16,335.05,78.06,335.05Z" style="fill:#263238"></path><path d="M67.9,346a47.74,47.74,0,0,0-7.15-.64s0,.05,0,.05c2.37.22,4.75.35,7.11.74C68,346.12,68,346,67.9,346Z" style="fill:#263238"></path><path d="M58.18,335.56c0-.21,0-.42-.08-.63-.06-.47-.13-.93-.21-1.4-.14-.89-.29-1.77-.46-2.66a.08.08,0,0,0-.15,0c.11.91.21,1.83.3,2.74,0,.45.07.9.11,1.35a3.7,3.7,0,0,0,.19,1.29c.06.14.27.08.31,0A1.89,1.89,0,0,0,58.18,335.56Z" style="fill:#263238"></path><path d="M107.81,311.49c-1.15-2.16-2.63-5-5.52-4.82-2.38.14-3.46,2.58-4,4.59-1.57,6.23-1.68,12.79-2,19.17-.65,13.48-1.23,27-1.32,40.47q0,5.61,0,11.22c0,3.82,0,14.44.27,18.25a.28.28,0,0,0,.56,0c0-3.26-.1-13.32-.11-16.58s0-6.37.06-9.56q.17-9.68.52-19.34c.24-6.41.52-12.82.79-19.23.14-3.2.27-6.4.41-9.6s.28-6.21.63-9.29c.2-1.73.46-3.46.82-5.16a7.23,7.23,0,0,1,1.49-3.46,3.27,3.27,0,0,1,4.22-.31,9,9,0,0,1,3,3.73C107.73,311.65,107.86,311.57,107.81,311.49Z" style="fill:#263238"></path><path d="M107,310.46s-2.37-8.39,2.88-4.2c8.74,7,9,22.17,9,22.17s-15.54-9-17.47-15C98.61,304.59,107,310.46,107,310.46Z" style="fill:#407BFF"></path><path d="M115.69,322.21c-.14-.23-.29-.46-.44-.69a4.33,4.33,0,0,0,0-.72c0-.36,0-.72,0-1.08,0-.71,0-1.42.08-2.12,0-.1-.14-.1-.15,0,0,.69-.06,1.39-.08,2.09,0,.34,0,.69,0,1,0,.13,0,.29,0,.45-.61-.95-1.24-1.89-1.88-2.81-.19-.27-.39-.53-.58-.79a16.72,16.72,0,0,1,0-2.74c0-1,0-1.95.06-2.93,0-.09-.14-.09-.15,0,0,1-.08,2-.13,3,0,.72-.1,1.45-.06,2.17-1.5-2-3.09-4-4.7-6-.06-.06-.17,0-.12.1,1,1.26,2,2.56,2.9,3.87-1.83-.43-3.69-.68-5.55-.94-.1,0-.13.13,0,.14,2,.3,3.9.79,5.84,1.22h0c.75,1,1.48,2.11,2.21,3.16.3.43.59.87.88,1.3h-.08l-.6-.08c-.43-.05-.87-.09-1.3-.12-.89-.07-1.79-.12-2.69-.17-.09,0-.09.15,0,.15.88,0,1.76.09,2.64.18l1.39.17.6.07.18,0,1.5,2.2c.87,1.3,1.66,2.69,2.59,3.94a.07.07,0,1,0,.12-.07A37.66,37.66,0,0,0,115.69,322.21Z" style="fill:#263238"></path><path d="M111.82,312.73c0-.32,0-.65,0-1a15.55,15.55,0,0,1,.08-2.05c0-.11-.15-.13-.15,0,0,.68-.07,1.36-.1,2,0,.34,0,.68,0,1v.47a1.29,1.29,0,0,0,0,.48c0,.07.1.07.13,0a1.68,1.68,0,0,0,0-.45C111.82,313.07,111.82,312.9,111.82,312.73Z" style="fill:#263238"></path><path d="M109.9,316.21c-.58-.1-1.17-.13-1.75-.18s-1.28-.11-1.92-.19a.07.07,0,1,0,0,.14c1.23.08,2.45.3,3.68.34C110,316.33,110,316.22,109.9,316.21Z" style="fill:#263238"></path><path d="M114.78,316.26c0,.06,0,.25,0,.32v.27c0,.2,0,.39,0,.59V318a1.29,1.29,0,0,0,0,.52,0,0,0,0,0,.06,0,.69.69,0,0,0,0-.25c0-.09,0-.18,0-.27v-1.44c0-.08,0-.26,0-.33S114.68,316.12,114.78,316.26Z" style="fill:#263238"></path><path d="M112.37,360.66c-3.27-2.45-6.2-6-10.6-6.15-3.63-.14-6.17,2.59-7.63,5.63a32.07,32.07,0,0,0-1.77,5q-1,3.45-1.86,6.92c-1.13,4.56-2.11,9.16-2.91,13.79-.44,2.58-.85,5.17-1.18,7.77a64.38,64.38,0,0,0-.76,8,.41.41,0,0,0,.81.09c.44-2.18.63-4.42,1-6.62s.66-4.41,1-6.61q1.13-6.61,2.6-13.15C92,371.19,92.91,367,94.24,363c1-2.87,2.48-6.22,5.57-7.25,4.72-1.57,9,2.42,12.46,5C112.34,360.83,112.45,360.72,112.37,360.66Z" style="fill:#263238"></path><path d="M109,358.32s-3-8.61,1.34-10.29c6.53-2.53,23.63,16.72,20.28,46.22,0,0-13.21-7.28-23-15.46s-12.25-18.88-8-21.64S109,358.32,109,358.32Z" style="fill:#407BFF"></path><path d="M128.64,387.93a24.33,24.33,0,0,0-1.59-3c-.56-1-1.13-2-1.71-3-1.13-1.94-2.26-3.89-3.42-5.81l-.58-.93c0-.12,0-.24.08-.35l.19-.85c.15-.64.26-1.29.38-1.93.23-1.27.45-2.55.79-3.78a.07.07,0,1,0-.14,0c-.27,1.26-.67,2.5-1,3.74-.19.6-.38,1.21-.54,1.83-.06.21-.11.42-.17.63-1.4-2.3-2.83-4.6-4.37-6.81a2.89,2.89,0,0,0,.15-.94l.15-1.3c.12-1,.23-1.94.37-2.91a57.21,57.21,0,0,1,1-5.65c0-.09-.12-.12-.14,0-.47,1.85-1,3.71-1.34,5.6-.17.92-.33,1.85-.46,2.78-.06.46-.11.93-.16,1.4,0,.14,0,.28-.05.42-.48-.67-.95-1.34-1.44-2-1.51-2-3.08-3.92-4.65-5.85-.06-.07-.19,0-.13.09a104.38,104.38,0,0,1,7.43,10.84c.43.69.86,1.39,1.28,2.09l-.42-.06c-.55-.07-1.11-.1-1.67-.15-1.11-.11-2.22-.2-3.33-.29-2.23-.18-4.46-.32-6.68-.55-.09,0-.12.13,0,.14,2.25.26,4.49.62,6.73.94l3.3.45A14.13,14.13,0,0,0,119,373l2.62,4.26a5.68,5.68,0,0,0-.59,0h-3.18l-4.29,0c-.1,0-.09.15,0,.15,1.45,0,2.9.09,4.35.16l2.06.13,1,.07a2.14,2.14,0,0,0,.91,0l2.23,3.62c.68,1.12,1.37,2.23,2.08,3.33a26.52,26.52,0,0,0,2.24,3.36C128.55,388.07,128.67,388,128.64,387.93Z" style="fill:#263238"></path><path d="M122.34,364.08a19.22,19.22,0,0,1-.59,2.81c-.24.95-.52,1.9-.83,2.84a.09.09,0,1,0,.18,0c.29-.93.55-1.86.78-2.81s.38-1.91.61-2.86C122.51,364,122.35,364,122.34,364.08Z" style="fill:#263238"></path><path d="M112.64,369.85a1.11,1.11,0,0,0-.72-.27l-1.25-.17c-.77-.11-1.54-.19-2.32-.28-1.61-.19-3.22-.35-4.83-.55a.08.08,0,0,0,0,.15c1.51.18,3,.41,4.54.61l2.23.29,1.07.12a3.61,3.61,0,0,1,1.23.21A.07.07,0,0,0,112.64,369.85Z" style="fill:#263238"></path><path d="M122.32,382.82c-.76-.07-1.53-.09-2.29-.11l-1.15,0-.55,0a2.85,2.85,0,0,1-.72,0c-.11,0-.12.17,0,.15a3.87,3.87,0,0,1,.68,0l.59,0,1.16.07c.76,0,1.52.09,2.28.09A.08.08,0,0,0,122.32,382.82Z" style="fill:#263238"></path><path d="M127,379.52c.08-.43.17-.87.24-1.3.16-.85.32-1.7.47-2.55a.07.07,0,0,0-.14,0l-.57,2.49-.27,1.24-.12.58a1.57,1.57,0,0,0-.06.61c0,.07.11.12.16.05A3.09,3.09,0,0,0,127,379.52Z" style="fill:#263238"></path><polygon points="113.6 401.28 113.03 410.75 111.34 438.7 82.68 438.7 80.99 410.75 80.42 401.28 113.6 401.28" style="fill:#37474f"></polygon><polygon points="113.6 401.28 113.03 410.75 80.99 410.75 80.42 401.28 113.6 401.28" style="fill:#263238"></polygon><rect x="77.78" y="394.58" width="38.47" height="9.47" style="fill:#37474f"></rect></g><g id="freepik--device-2--inject-76"><rect x="223.04" y="242.34" width="53.92" height="4.51" style="fill:#c7c7c7"></rect><polygon points="270.54 242.34 229.46 242.34 230.5 234.52 230.56 234.15 230.65 233.42 230.7 233.05 230.8 232.31 230.81 232.2 230.85 231.95 230.95 231.21 231 230.84 231.73 225.38 268.27 225.38 268.96 230.53 269 230.78 269.11 231.64 269.14 231.88 269.19 232.2 269.26 232.74 269.29 232.99 269.4 233.84 269.44 234.09 270.54 242.34" style="fill:#dbdbdb"></polygon><polygon points="269.19 232.2 231 230.84 231.73 225.38 268.27 225.38 269.19 232.2" style="fill:#c7c7c7"></polygon><rect x="180.83" y="134.14" width="138.35" height="94.07" style="fill:#263238"></rect><rect x="180.83" y="214.34" width="138.35" height="13.88" style="fill:#dbdbdb"></rect><path d="M252.29,220.34a2.29,2.29,0,1,1-2.29-2.29A2.29,2.29,0,0,1,252.29,220.34Z" style="fill:#37474f"></path><rect x="187.21" y="140.26" width="125.58" height="67.55" style="fill:#fff"></rect><rect x="187.21" y="140.26" width="125.58" height="67.55" style="fill:#fff"></rect><rect x="187.21" y="140.26" width="125.58" height="3.06" style="fill:#455a64"></rect><path d="M189.46,141.79a.52.52,0,0,1-.52.51.52.52,0,1,1,0-1A.52.52,0,0,1,189.46,141.79Z" style="fill:#c7c7c7"></path><path d="M191.57,141.79a.52.52,0,0,1-.52.51.52.52,0,1,1,0-1A.52.52,0,0,1,191.57,141.79Z" style="fill:#fff"></path><path d="M193.68,141.79a.52.52,0,1,1-.52-.52A.51.51,0,0,1,193.68,141.79Z" style="fill:#407BFF"></path><path d="M242.08,170.38l-2.36-1.81a12.82,12.82,0,0,1,22.64,4.93l-2.9.68a9.84,9.84,0,0,0-17.38-3.8Z" style="fill:#407BFF"></path><polygon points="256.5 172.63 260.67 179.81 264.8 172.61 256.5 172.63" style="fill:#407BFF"></polygon><g style="opacity:0.2"><path d="M242.08,170.38l-2.36-1.81a12.82,12.82,0,0,1,22.64,4.93l-2.9.68a9.84,9.84,0,0,0-17.38-3.8Z"></path><polygon points="256.5 172.63 260.67 179.81 264.8 172.61 256.5 172.63"></polygon></g><path d="M246.25,187.9a12.87,12.87,0,0,1-8.61-9.33l2.9-.67a9.84,9.84,0,0,0,17.74,3.29l2.47,1.66A12.87,12.87,0,0,1,246.25,187.9Z" style="fill:#407BFF"></path><polygon points="243.5 179.44 239.33 172.26 235.2 179.46 243.5 179.44" style="fill:#407BFF"></polygon></g><g id="freepik--device-3--inject-76"><path d="M298.87,207h56.42a1.93,1.93,0,0,1,1.82,1.55l6.48,36.72a1.26,1.26,0,0,1-1.28,1.55H305.89a1.94,1.94,0,0,1-1.83-1.55l-6.47-36.72A1.26,1.26,0,0,1,298.87,207Z" style="fill:#263238"></path><path d="M355.29,207H298.87a1.94,1.94,0,0,0-1.83,1.55l-6.47,36.72a1.26,1.26,0,0,0,1.28,1.55h56.42a1.93,1.93,0,0,0,1.82-1.55l6.48-36.72A1.26,1.26,0,0,0,355.29,207Z" style="fill:#407BFF"></path><path d="M355.29,207H298.87a1.94,1.94,0,0,0-1.83,1.55l-6.47,36.72a1.26,1.26,0,0,0,1.28,1.55h56.42a1.93,1.93,0,0,0,1.82-1.55l6.48-36.72A1.26,1.26,0,0,0,355.29,207Z" style="fill:#263238;opacity:0.2"></path><line x1="304.85" y1="208.75" x2="304.86" y2="208.65" style="fill:none"></line><polygon points="352.41 208.7 345.99 245.12 294.77 245.12 301.19 208.7 352.41 208.7" style="fill:#fff"></polygon><path d="M295.46,231.26h0a.25.25,0,0,1-.25-.31l1.41-8a.39.39,0,0,1,.37-.31h0a.25.25,0,0,1,.25.31l-1.42,8A.37.37,0,0,1,295.46,231.26Z" style="fill:#263238;opacity:0.2"></path><path d="M352.33,226.93a1.39,1.39,0,0,1-1.32,1.12.92.92,0,0,1-.92-1.12,1.39,1.39,0,0,1,1.32-1.12A.91.91,0,0,1,352.33,226.93Z" style="fill:#263238;opacity:0.2"></path><polygon points="352.41 208.7 345.99 245.12 294.77 245.12 301.19 208.7 352.41 208.7" style="fill:#fff"></polygon><polygon points="352.19 209.95 300.97 209.95 301.19 208.7 352.41 208.7 352.19 209.95" style="fill:#455a64"></polygon><path d="M302.06,209.32a.31.31,0,0,1-.3.26.21.21,0,0,1-.21-.26.32.32,0,0,1,.3-.25A.2.2,0,0,1,302.06,209.32Z" style="fill:#c7c7c7"></path><path d="M303.11,209.32a.31.31,0,0,1-.3.26.21.21,0,0,1-.21-.26.31.31,0,0,1,.3-.25A.2.2,0,0,1,303.11,209.32Z" style="fill:#fff"></path><path d="M304.16,209.32a.32.32,0,0,1-.3.26.21.21,0,0,1-.21-.26.31.31,0,0,1,.3-.25A.21.21,0,0,1,304.16,209.32Z" style="fill:#407BFF"></path><path d="M319.81,223.82l-1.12-1a8,8,0,0,1,8.09-2.4,5.56,5.56,0,0,1,3.81,5.09l-1.65.37A4.27,4.27,0,0,0,326,222,6.11,6.11,0,0,0,319.81,223.82Z" style="fill:#407BFF"></path><polygon points="327.47 225.05 329.06 228.97 332.01 225.04 327.47 225.05" style="fill:#407BFF"></polygon><g style="opacity:0.2"><path d="M319.81,223.82l-1.12-1a8,8,0,0,1,8.09-2.4,5.56,5.56,0,0,1,3.81,5.09l-1.65.37A4.27,4.27,0,0,0,326,222,6.11,6.11,0,0,0,319.81,223.82Z"></path><polygon points="327.47 225.05 329.06 228.97 332.01 225.04 327.47 225.05"></polygon></g><path d="M320.4,233.39a5.56,5.56,0,0,1-3.81-5.1l1.65-.36a4.27,4.27,0,0,0,2.92,3.91,6.22,6.22,0,0,0,6.46-2.11l1.19.9C326.63,233.19,323.17,234.33,320.4,233.39Z" style="fill:#407BFF"></path><polygon points="319.71 228.77 318.13 224.85 315.17 228.78 319.71 228.77" style="fill:#407BFF"></polygon></g><g id="freepik--device-1--inject-76"><rect x="120.01" y="190" width="79.52" height="53.19" style="fill:#dbdbdb"></rect><rect x="120.59" y="190.65" width="78.36" height="51.9" style="fill:#263238"></rect><rect x="109.66" y="243.19" width="100.23" height="3.65" style="fill:#c7c7c7"></rect><rect x="125.02" y="194.59" width="69.51" height="44.01" style="fill:#fff"></rect><rect x="125.02" y="194.59" width="69.51" height="1.69" style="fill:#455a64"></rect><path d="M126.62,195.44a.33.33,0,0,1-.65,0,.33.33,0,0,1,.65,0Z" style="fill:#c7c7c7"></path><path d="M127.92,195.44a.32.32,0,0,1-.32.32.33.33,0,0,1-.32-.32.32.32,0,0,1,.32-.32A.32.32,0,0,1,127.92,195.44Z" style="fill:#fff"></path><path d="M129.23,195.44a.32.32,0,0,1-.64,0,.32.32,0,0,1,.64,0Z" style="fill:#407BFF"></path><path d="M154.37,212.73l-1.61-1.23a8.74,8.74,0,0,1,15.45,3.37l-2,.45a6.71,6.71,0,0,0-11.86-2.59Z" style="fill:#407BFF"></path><polygon points="164.21 214.27 167.06 219.18 169.88 214.26 164.21 214.27" style="fill:#407BFF"></polygon><g style="opacity:0.2"><path d="M154.37,212.73l-1.61-1.23a8.74,8.74,0,0,1,15.45,3.37l-2,.45a6.71,6.71,0,0,0-11.86-2.59Z"></path><polygon points="164.21 214.27 167.06 219.18 169.88 214.26 164.21 214.27"></polygon></g><path d="M157.21,224.69a8.78,8.78,0,0,1-5.87-6.36l2-.46a6.72,6.72,0,0,0,12.12,2.24l1.68,1.14A8.78,8.78,0,0,1,157.21,224.69Z" style="fill:#407BFF"></path><polygon points="155.34 218.92 152.49 214.02 149.67 218.93 155.34 218.92" style="fill:#407BFF"></polygon></g><g id="freepik--Character--inject-76"><polygon points="348.09 328.73 345.5 344.24 327.98 438.85 325.16 438.85 337.9 344.24 339.78 328.73 348.09 328.73" style="fill:#c7c7c7"></polygon><polygon points="339.78 328.73 348.09 328.73 345.5 344.24 337.9 344.24 339.78 328.73" style="fill:#a6a6a6"></polygon><polygon points="403.1 438.85 400.28 438.85 382.76 344.24 380.17 328.73 388.48 328.73 390.36 344.24 403.1 438.85" style="fill:#c7c7c7"></polygon><polygon points="388.48 328.73 390.36 344.24 382.76 344.24 380.17 328.73 388.48 328.73" style="fill:#a6a6a6"></polygon><polygon points="455.65 438.85 452.83 438.85 435.31 344.24 432.72 328.73 441.03 328.73 442.91 344.24 455.65 438.85" style="fill:#c7c7c7"></polygon><polygon points="442.91 344.24 435.31 344.24 432.72 328.73 441.03 328.73 442.91 344.24" style="fill:#a6a6a6"></polygon><polygon points="451.17 336.02 322.8 336.02 322.8 322.49 370.86 322.49 387.01 208.53 446.28 208.53 451.17 336.02" style="fill:#c7c7c7"></polygon><polygon points="443.69 322.5 322.8 322.5 322.8 336.02 444.17 336.02 443.69 322.5" style="fill:#dbdbdb"></polygon><polygon points="451.17 336.02 444.17 336.02 439.61 208.53 446.28 208.53 451.17 336.02" style="fill:#dbdbdb"></polygon><path d="M320.58,457.88c2.49.23,70.16-16,72.29-18.16.26-.24-1.08-6.39-3-14.78l0-.16c-1.23-5.32-21-48.31-21-48.31L325,388.74l20,39.89s-8.25,6-15.33,11.64c0,0,0,0,0,0a96.9,96.9,0,0,0-8.93,7.62C318.58,450.55,318.1,457.66,320.58,457.88Z" style="fill:#ad6359"></path><path d="M320.59,457.87c2.48.24,70.14-15.95,72.28-18.14.26-.25-1.08-6.4-3-14.79l0-.16c-.45-2-3.5-9.21-7.12-17.49-7.22,1.95-33.09,9-42.49,11.89l4.73,9.45s-8.25,6-15.32,11.64c0,0,0,0,0,0-4.37,3.48-8.14,6.61-8.93,7.62C318.58,450.56,318.1,457.67,320.59,457.87Z" style="fill:#fff"></path><path d="M320.36,458.2c2.56.22,70.27-16.16,72.46-18.41.83-.86-.67-11.54-4.39-22.86l-43.65,10.61s-22.27,17.67-24.41,20.4S317.81,458,320.36,458.2Z" style="fill:#407BFF"></path><path d="M320.68,455.26c11.28-3,57.08-14.16,68.46-16.29.09,0,.11,0,0,.07-11.12,3.24-57,14-68.44,16.4C320.48,455.49,320.44,455.32,320.68,455.26Z" style="fill:#263238"></path><path d="M324.14,444.45a9.38,9.38,0,0,1,7.46,1.13,9.12,9.12,0,0,1,4,5.45c0,.07-.11.1-.14,0a10.84,10.84,0,0,0-11.29-6.47A.07.07,0,0,1,324.14,444.45Z" style="fill:#263238"></path><path d="M341.5,429.54c4.53-1.16,10.18-.84,13.9,2.2.15.12,0,.32-.17.28a64.33,64.33,0,0,0-13.68-1.9A.29.29,0,0,1,341.5,429.54Z" style="fill:#263238"></path><path d="M338.32,431.75c4.53-1.16,10.18-.83,13.91,2.2.14.12,0,.32-.18.29a64.34,64.34,0,0,0-13.67-1.91A.3.3,0,0,1,338.32,431.75Z" style="fill:#263238"></path><path d="M335.14,434c4.53-1.16,10.19-.83,13.91,2.2.14.12,0,.32-.18.28a64.88,64.88,0,0,0-13.67-1.9A.3.3,0,0,1,335.14,434Z" style="fill:#263238"></path><path d="M332,436.18c4.53-1.16,10.18-.83,13.9,2.2.15.12,0,.33-.17.29A64.34,64.34,0,0,0,332,436.76.29.29,0,0,1,332,436.18Z" style="fill:#263238"></path><path d="M383.64,428.89c5.1-1.22,7,6.7,1.89,7.92S378.53,430.11,383.64,428.89Z" style="fill:#263238"></path><path d="M335.63,425.17c3.22,2.57,7.43,3.66,11.21,5.12.39.15.71-.22.73-.57a.12.12,0,0,0,.11-.16,24.5,24.5,0,0,0-6.94-10.62c-1.9-1.64-5.25-2.8-7.08-.34S333.75,423.67,335.63,425.17Zm-1.12-3.71c-.75-5,4.63-2.33,6-1.07a25.17,25.17,0,0,1,2.4,2.66c1.57,1.93,2.83,4.05,4.19,6.11-1.81-.82-3.68-1.49-5.51-2.25C339.37,426,334.92,424.25,334.51,421.46Z" style="fill:#263238"></path><path d="M363.11,422.76c-1.07-2.88-4.61-2.7-6.89-1.67a24.54,24.54,0,0,0-9.64,8.25c-.06.08,0,.15.06.19a.56.56,0,0,0,.54.74c4-.33,8.38-.19,12.19-1.76C361.6,427.6,364.12,425.48,363.11,422.76Zm-9.92,5.75c-2,.22-4,.33-5.93.62a73.63,73.63,0,0,1,5.73-4.69,25.37,25.37,0,0,1,3.06-1.88c1.65-.84,7.57-1.94,5.44,2.7C360.31,427.82,355.55,428.26,353.19,428.51Z" style="fill:#263238"></path><path d="M340,425l47-14.09s-38.73-80.71-37.51-84.81c.82-2.75,58.88-2.94,75.9-18.22,17.62-15.81,3.9-46.88,3.9-46.88l-48.82-.25s.84,10.19-1,11.77c-1.23,1.06-68,6.93-80.76,31.47C287,326.25,340,425,340,425Z" style="fill:#263238"></path><path d="M349.43,326.07c-.21.7.73,3.6,2.45,7.93l-35.09,43.12c-12.51-28.53-24.28-61.43-18.17-73.14,12.79-24.54,79.53-30.42,80.77-31.48,1.85-1.58,1-11.77,1-11.77l31,.16-51.51,63.25C353.69,324.83,349.64,325.36,349.43,326.07Z" style="fill:#263238"></path><path d="M338.79,415a28.84,28.84,0,0,1,3.83-1.42c1.35-.46,2.71-.93,4.07-1.36q4-1.31,8.08-2.46c5.46-1.54,10.92-3.05,16.42-4.45,2.86-.73,9-2.32,9.38-2.26.19,0,.23.33.06.39-5.31,1.9-10.7,3.53-16.09,5.18s-10.78,3.26-16.24,4.64c-1.51.38-3,.72-4.55,1.08a34.48,34.48,0,0,1-4.82,1C338.77,415.43,338.61,415.13,338.79,415Z" style="fill:#455a64"></path><path d="M426.61,270.28c-.15-1.63-.33-3.26-.52-4.88,0-.19-.32-.19-.3,0,.65,6.6,1.32,13.36.11,19.94a28.42,28.42,0,0,1-8.72,15.8c-9.69,9-23.23,11.69-35.85,13.84q-10.84,1.84-21.8,2.89-5.36.53-10.73.86c-3.55.22-7.11.26-10.66.46-1.13.06-2.13.57-1.95,1.85a8.69,8.69,0,0,0,.85,2.24l1.14,2.59q2.15,4.85,4.3,9.66,4.45,9.95,9,19.84,9.09,19.62,18.88,38.93l2.43,4.79c.05.1.2,0,.16-.09q-9.35-19.56-18.46-39.21c-3-6.51-6-13-9-19.53q-2.23-4.89-4.44-9.8c-.74-1.63-1.47-3.27-2.2-4.9l-1.1-2.46c-.3-.68-1.4-2.31-.64-2.94.51-.43,1.57-.28,2.18-.3l2.83-.09c1.79-.06,3.59-.13,5.38-.22,3.63-.19,7.26-.43,10.88-.75,7.1-.61,14.17-1.51,21.2-2.64,12.55-2,26.18-4.3,36.22-12.72a30.21,30.21,0,0,0,9.63-14C427.38,283.24,427.2,276.64,426.61,270.28Z" style="fill:#455a64"></path><path d="M217.35,396c1.76,1.77,64.21,32.45,67.25,32.12.36,0,3.25-5.61,7.08-13.33l.08-.15c2.45-4.87,24.66-45.9,24.66-45.9l-38.85-19.67L254.74,389s-10.16-.67-19.22-.81h0c-5.58-.11-10.48-.1-11.74.17C220.47,389.09,215.57,394.27,217.35,396Z" style="fill:#ad6359"></path><path d="M217.35,396c1.76,1.77,64.21,32.45,67.25,32.12.36,0,3.25-5.61,7.09-13.32l.07-.15.53-1c.12-.25.25-.5.39-.74s.38-.73.58-1.1c1.69-3.21,4.47-8.4,7.53-14.08l-39.61-20L254.74,389s-10.16-.66-19.22-.81h0c-5.58-.1-10.48-.1-11.74.18C220.48,389.1,215.57,394.26,217.35,396Z" style="fill:#fff"></path><path d="M217,396.12c1.83,1.8,64.43,32.37,67.55,32,1.19-.13,6.84-9.32,11.2-20.41l-40.39-19.66s-28.42-.6-31.81.15S215.14,394.32,217,396.12Z" style="fill:#407BFF"></path><path d="M219.09,394.06c10.62,4.86,53,25.49,63.12,31.11.08.05.06.1,0,.07-10.63-4.6-52.84-25.57-63.17-31C218.79,394.11,218.87,394,219.09,394.06Z" style="fill:#263238"></path><path d="M228.65,387.94a9.36,9.36,0,0,1,5,5.63,9.07,9.07,0,0,1-.39,6.75c0,.06-.15,0-.12-.07a10.85,10.85,0,0,0-4.58-12.18A.07.07,0,0,1,228.65,387.94Z" style="fill:#263238"></path><path d="M251.53,387.52c4.23,2,8.37,5.86,9.31,10.56,0,.19-.23.24-.32.11A64.74,64.74,0,0,0,251.2,388,.3.3,0,0,1,251.53,387.52Z" style="fill:#263238"></path><path d="M247.67,387.2c4.23,2,8.37,5.86,9.31,10.57,0,.18-.23.23-.32.1a64.74,64.74,0,0,0-9.32-10.19A.3.3,0,0,1,247.67,387.2Z" style="fill:#263238"></path><path d="M243.81,386.88c4.23,2,8.37,5.86,9.31,10.57,0,.18-.23.23-.32.1a64.23,64.23,0,0,0-9.32-10.18A.3.3,0,0,1,243.81,386.88Z" style="fill:#263238"></path><path d="M240,386.56c4.23,2,8.37,5.86,9.31,10.57,0,.18-.23.23-.32.1a64.65,64.65,0,0,0-9.31-10.18A.3.3,0,0,1,240,386.56Z" style="fill:#263238"></path><path d="M284.41,413.9c4.7,2.31,1.11,9.63-3.6,7.31S279.69,411.58,284.41,413.9Z" style="fill:#263238"></path><path d="M249.79,380.42c.84,4,3.39,7.56,5.38,11.09a.57.57,0,0,0,.92,0,.12.12,0,0,0,.19,0,24.53,24.53,0,0,0,1.42-12.61c-.41-2.47-2.25-5.5-5.24-4.77C249.64,374.78,249.3,378.06,249.79,380.42Zm1.51-3.58c2.65-4.36,5.05,1.16,5.29,3a26.88,26.88,0,0,1,.15,3.59,73,73,0,0,1-.67,7.38c-.87-1.8-1.88-3.5-2.81-5.26C252.15,383.44,249.84,379.25,251.3,376.84Z" style="fill:#263238"></path><path d="M272.5,396.08c1-2.9-1.83-5-4.25-5.67a24.45,24.45,0,0,0-12.68.2.12.12,0,0,0-.08.18.58.58,0,0,0-.06.92c3.33,2.31,6.59,5.2,10.52,6.42C268.25,398.85,271.54,398.83,272.5,396.08Zm-11.31-1.89c-1.66-1.1-3.26-2.27-5-3.31a73.28,73.28,0,0,1,7.41.05,26.58,26.58,0,0,1,3.55.49c1.8.41,7.07,3.34,2.46,5.56C267.12,398.2,263.17,395.5,261.19,394.19Z" style="fill:#263238"></path><path d="M254.94,382.55,301.78,406s36.57-74.34,40.58-79.13c5.35-6.38,75,2.63,91.43-18,17-21.33,2.43-47.82,2.43-47.82l-53,0s-.15,5.88,2.9,14.48c0,0-60.63-3.61-77.78,13.07C295.15,301.33,254.94,382.55,254.94,382.55Z" style="fill:#263238"></path><path d="M395.77,280.81a93.21,93.21,0,0,0-8.44-5.15,35.22,35.22,0,0,0-6.39-2.58c-1.54-.38-2.22-.49-.77.2l3.9,1.85-.82,0c-1-.06-2.09-.09-3.13-.12-2-.05-4.08,0-6.12-.05-4.14,0-8.23.37-12.36.57a.09.09,0,0,0,0,.17c4.11-.13,8.25.09,12.37.07,2,0,4.08.05,6.12.09l3,.05a23.71,23.71,0,0,0,2.53,0l1.14.53c3,1.42,6,2.89,8.88,4.52A.08.08,0,0,0,395.77,280.81Z" style="fill:#455a64"></path><path d="M382,259c.54,2.5,1,5,1.63,7.5.29,1.14.57,2.3,1,3.41.33.93.84,2,1.9,2.25,1.22.28,1.61-.77,1.54-1.79a33,33,0,0,0-.51-3.41c-.21-1.29-.43-2.59-.62-3.89-.1-.65-.2-1.3-.29-1.95,0-.17-.1-1.41-.17-1.77,0,0,0,.06-.07,0h-.05s-.07,0-.07-.07,0-.12.07-.18a.09.09,0,0,1,.11,0c.23.14.24.46.31.7.18.64.36,1.27.52,1.91.3,1.19.6,2.39.86,3.6s.51,2.41.77,3.62a5.51,5.51,0,0,1,.14,2.76,2.09,2.09,0,0,1-2,1.52c0,.08.09.16.13.25.1.25.17.51.25.76s.16.52.23.79a2.32,2.32,0,0,1,.06.38c0,.15,0,.29,0,.43s-.29.35-.39.13-.15-.23-.22-.36a3.07,3.07,0,0,1-.17-.42c-.07-.25-.14-.5-.19-.76s-.12-.5-.16-.76,0-.31,0-.46a2.89,2.89,0,0,1-1.41-.59,4.78,4.78,0,0,1-1.41-2.32c-.34-1-.59-2.12-.85-3.19a46.75,46.75,0,0,1-1.31-8.05A.23.23,0,0,1,382,259Z" style="fill:#455a64"></path><path d="M407.51,266.12c.19,1.24.29,2.49.53,3.72a36.65,36.65,0,0,0,.88,3.58,12.68,12.68,0,0,0,1.4,3.25,11.67,11.67,0,0,0,2.33,2.53,20.41,20.41,0,0,0,5.71,3.44,26.21,26.21,0,0,0,3.21,1.06,17,17,0,0,0,1.72.36,3.63,3.63,0,0,1,1.38.37.28.28,0,0,1,0,.48,5,5,0,0,1-2.58,0,19.93,19.93,0,0,1-2.74-.58,19.53,19.53,0,0,1-5.12-2.37,16.11,16.11,0,0,1-4.23-3.7,12.24,12.24,0,0,1-2.16-5.18,25,25,0,0,1-.52-6.95A.12.12,0,0,1,407.51,266.12Z" style="fill:#455a64"></path><path d="M264.44,374a28.42,28.42,0,0,1,3.77,1.6c1.3.59,2.6,1.18,3.89,1.8,2.55,1.21,5.07,2.46,7.56,3.77,5,2.62,10,5.27,15,8,2.58,1.44,8.14,4.5,8.37,4.8s-.06.4-.22.33c-5.17-2.26-10.21-4.78-15.26-7.29s-10.07-5-15-7.77c-1.36-.76-2.7-1.56-4.05-2.34a33.63,33.63,0,0,1-4.22-2.56C264.16,374.29,264.26,374,264.44,374Z" style="fill:#455a64"></path><path d="M436.19,273.34a.18.18,0,0,0-.35,0c.1,11.51-1.68,24.39-10.54,32.65-9.72,9.05-23.74,10.13-36.35,10-7.24-.07-14.47-.25-21.71,0s-14.62.59-21.84,1.51a11.88,11.88,0,0,0-7.42,3.55,38.8,38.8,0,0,0-4.92,7.06q-5.46,9.06-10.58,18.31Q312.29,364.82,303.64,384l-2.13,4.76c0,.11.11.2.16.09q8.81-19.21,18.94-37.79,5-9.29,10.44-18.38c1.69-2.85,3.33-5.77,5.21-8.49,1.67-2.41,3.75-4.68,6.64-5.55a27.07,27.07,0,0,1,5.39-.79q2.77-.25,5.55-.45c3.61-.27,7.23-.47,10.84-.6,7.3-.26,14.59-.17,21.89,0,12.68.23,26.52-.21,37-8.28a29.85,29.85,0,0,0,9.77-13.64,53.88,53.88,0,0,0,2.82-17.14C436.23,276.24,436.22,274.79,436.19,273.34Z" style="fill:#455a64"></path><path d="M360.31,323.77c-2.59.05-5.17.15-7.76.24a30.74,30.74,0,0,0-6.42.57c-1.95.49-3.51.73-5.11,2.92-2,2.73-12.88,23.76-17.45,33.07-1.27,2.58-2.52,5.16-3.75,7.77s-2.39,5.43-3.65,8.12a.09.09,0,0,0,.15.08c1.11-2.24,2.36-4.43,3.52-6.66s2.28-4.48,3.4-6.73c2.27-4.54,4.53-9.08,6.82-13.61s5-8.87,7.3-13.35c1.93-3.76,4.56-8.89,6.4-9.65a30.49,30.49,0,0,1,8-2c2.85-.2,5.71-.37,8.55-.61C360.44,324,360.44,323.77,360.31,323.77Z" style="fill:#455a64"></path><path d="M406.4,207.14c-14,18.32-41.2,40.14-50.12,38.34-4.24-.86-12-1.49-16.51-7.55-9.82-13.23-14.22-31.21-17.25-40.17-1.38-4.07,24.33-16.49,26.57-12.49,5.24,9.38,10,26.59,11.23,26.76,4.63.64,25.45-10.67,40.31-18.08C417.28,185.65,412,199.84,406.4,207.14Z" style="fill:#ad6359"></path><path d="M325.22,202.44c-2-3-10.12-17.47-11.47-22s-4.3-17.87-.93-19.26,4.54,2.45,4.54,2.45-.35-5.83,3.17-6.91,5.14,4.93,5.14,4.93.08-6,3.67-6.84,4.21,5.5,4.21,5.5-.19-5.5,3.05-4.94c3.9.66,3.1,10.84,5,15.73.42,1.11,10.2,21.92,10.2,21.92Z" style="fill:#ad6359"></path><path d="M333.48,159.77c-.57,7.48.48,10.85,3.93,17.38.07.13-.1.26-.19.13-4-6.08-5.89-10.13-4.1-17.56C333.21,159.36,333.51,159.41,333.48,159.77Z" style="fill:#263238"></path><path d="M325.73,161.06c.09,7.82,1.19,11.49,4.31,18.6,0,.1-.13.18-.18.08-3.64-6.71-5.46-10.79-4.52-18.62C325.38,160.77,325.73,160.7,325.73,161.06Z" style="fill:#263238"></path><path d="M317.53,164c.63,7.57,1.67,11.64,5.58,18.15a.14.14,0,0,1-.23.16c-4.64-6.25-6-11.33-5.58-18.27C317.33,163.56,317.49,163.51,317.53,164Z" style="fill:#263238"></path><path d="M334.32,152.74l11.94,32.57a1.12,1.12,0,0,1-1,1.66l-15.93.32a2.51,2.51,0,0,1-2.21-1.6l-11.93-32.57a1.12,1.12,0,0,1,1-1.66l15.93-.31A2.5,2.5,0,0,1,334.32,152.74Z" style="fill:#37474f"></path><path d="M333.09,151.13l-15.93.31a1.12,1.12,0,0,0-1,1.66l11.94,32.57a2.49,2.49,0,0,0,2.2,1.6l15.93-.31a1.13,1.13,0,0,0,1-1.67L335.3,152.72A2.5,2.5,0,0,0,333.09,151.13Zm12.77,33.18c.32.85-.08,1.56-.87,1.58l-14.25.28a2.36,2.36,0,0,1-2-1.53l-11.11-30.32c-.64-1.75,0-1.85.77-1.86l2.86-.06a.59.59,0,0,1,.45.41l0,.1c.2.55.5.54.87.54l6.6-.13c.37,0,.66,0,.47-.56l0-.1c-.09-.23,0-.42.15-.43l2.85,0c.8,0,1.53.2,2.12,1.8Z" style="fill:#263238"></path><line x1="328.02" y1="182.72" x2="327.96" y2="182.72" style="fill:none"></line><path d="M334.75,154l11.11,30.33c.32.85-.08,1.56-.87,1.58l-14.25.28a2.36,2.36,0,0,1-2-1.53l-11.11-30.32c-.64-1.75,0-1.85.77-1.86l2.86-.06a.59.59,0,0,1,.45.41l0,.1c.2.55.5.54.87.54l6.6-.13c.37,0,.66,0,.47-.56l0-.1c-.09-.23,0-.42.15-.43l2.85,0C333.43,152.16,334.16,152.38,334.75,154Z" style="fill:#fff"></path><path d="M334.75,154l1,2.7L318.6,157l-1-2.7c-.64-1.75,0-1.85.77-1.86l2.86-.06a.59.59,0,0,1,.45.41l0,.1c.2.55.5.54.87.54l6.6-.13c.37,0,.66,0,.47-.56l0-.1c-.09-.23,0-.42.15-.43l2.85,0C333.43,152.16,334.16,152.38,334.75,154Z" style="fill:#407BFF"></path><g id="freepik--u5Zjqx--inject-76"><path d="M321,153.09v0a.49.49,0,0,0-.31-.11.26.26,0,0,0-.23.12l0,0,0,0h0l0,0,.06,0,.1,0h.13l.11,0,.07,0,.08,0,0,0Z" style="fill:#fff"></path><path d="M320.55,153.23l-.06,0a.21.21,0,0,1,.15-.09.38.38,0,0,1,.3.08l0,0a.44.44,0,0,0-.21-.07A.19.19,0,0,0,320.55,153.23Z" style="fill:#fff"></path><path d="M320.88,153.27l0,0a.21.21,0,0,0-.1,0,.15.15,0,0,0-.08,0l-.06,0A.19.19,0,0,1,320.88,153.27Z" style="fill:#fff"></path><path d="M320.82,153.35s0,0,0,0a.07.07,0,0,1-.05,0s0,0,0,0A.08.08,0,0,1,320.82,153.35Z" style="fill:#fff"></path></g><path d="M318.33,153.23c0-.07,0-.12.08-.12a.17.17,0,0,1,.15.11c0,.06,0,.12-.07.12A.2.2,0,0,1,318.33,153.23Z" style="fill:#fff"></path><path d="M318.69,153.22a.09.09,0,0,1,.07-.12.17.17,0,0,1,.16.12c0,.06,0,.11-.07.11A.18.18,0,0,1,318.69,153.22Z" style="fill:#fff"></path><path d="M319.05,153.21c0-.06,0-.11.07-.11a.2.2,0,0,1,.16.11.08.08,0,0,1-.08.11A.16.16,0,0,1,319.05,153.21Z" style="fill:#fff"></path><path d="M319.41,153.21a.08.08,0,0,1,.07-.12.17.17,0,0,1,.15.11.08.08,0,0,1-.07.12A.17.17,0,0,1,319.41,153.21Z" style="fill:#fff"></path><path d="M319.77,153.2c0-.06,0-.11.07-.12a.17.17,0,0,1,.15.11.08.08,0,0,1-.07.12A.17.17,0,0,1,319.77,153.2Z" style="fill:#fff"></path><path d="M333.16,153.18l-.92,0-.16-.42.92,0Zm-.89,0h.83l-.13-.33h-.83Z" style="fill:#fff"></path><polygon points="332.78 152.84 332.18 152.85 332.29 153.13 332.88 153.12 332.78 152.84" style="fill:#fff"></polygon><polygon points="333.21 153.08 333.12 153.08 333.04 152.86 333.12 152.85 333.21 153.08" style="fill:#fff"></polygon><path d="M326.55,152.68l-1.8,0a.17.17,0,0,1-.15-.11h0c0-.06,0-.11.07-.11l1.8,0a.17.17,0,0,1,.15.11h0C326.64,152.63,326.61,152.68,326.55,152.68Z" style="fill:#fff"></path><path d="M328.57,166.39l-1.07-.76c.46-1.4,2.1-1.8,4.08-1a9.71,9.71,0,0,1,4.31,3.77l-.87.11a7.5,7.5,0,0,0-3.32-2.89C330.19,165,328.93,165.31,328.57,166.39Z" style="fill:#407BFF"></path><polygon points="333.78 167.84 336.27 170.63 336.58 168.2 333.78 167.84" style="fill:#407BFF"></polygon><g style="opacity:0.2"><path d="M328.57,166.39l-1.07-.76c.46-1.4,2.1-1.8,4.08-1a9.71,9.71,0,0,1,4.31,3.77l-.87.11a7.5,7.5,0,0,0-3.32-2.89C330.19,165,328.93,165.31,328.57,166.39Z"></path><polygon points="333.78 167.84 336.27 170.63 336.58 168.2 333.78 167.84"></polygon></g><path d="M332.62,172.94a9.83,9.83,0,0,1-4.31-3.77l.88-.12a7.51,7.51,0,0,0,3.31,2.9c1.6.65,2.9.28,3.18-.92l1.08.71C336.4,173.3,334.7,173.79,332.62,172.94Z" style="fill:#407BFF"></path><polygon points="330.42 169.74 327.93 166.95 327.62 169.38 330.42 169.74" style="fill:#407BFF"></polygon><path d="M351.54,192.91s3.14-9.92,2.26-14.12-7.43-9.07-10.8-11.1c-4.16-2.5-5.26,1.42-4.52,3.94,1.24,4.27,5.62,8.91,5.9,9.07,0,0-9.1,4.64-8.08,13.53Z" style="fill:#ad6359"></path><path d="M353.4,192.76,324,209.32s10.34,27.74,20.17,33,13.26,4.58,16.25,4.44S387.6,232.43,406,207.93c17.34-23.14.23-17.89-12.93-10.86-7.5,4-31,13.82-31.84,13.42S353.4,192.76,353.4,192.76Z" style="fill:#407BFF"></path><path d="M367.46,243.29l-.36.22c-1-1.71-2.13-3.38-3.33-5a33.75,33.75,0,0,0-2.31-2.76c-.21-.24-.44-.47-.67-.7A22.22,22.22,0,0,0,359,233.4a16.76,16.76,0,0,0-6.12-3.22,24.46,24.46,0,0,0-6.91-1,46,46,0,0,0-7,.57q-1.57.24-3.15.51l-1.29.23-.46.08-.44-.76.14,0,1.26-.23c1.26-.23,2.53-.46,3.81-.66a41.67,41.67,0,0,1,7.16-.57,25,25,0,0,1,7.13,1.07,17.13,17.13,0,0,1,6.33,3.47,25.6,25.6,0,0,1,2.06,2c.22.23.43.47.64.71a33.72,33.72,0,0,1,2.11,2.66C365.39,239.85,366.45,241.55,367.46,243.29Zm29.65-30.18a75.86,75.86,0,0,1-6.89-7.11l-.52-.6h0l-2.3-2.65c-.61-.7-1.22-1.4-1.85-2.09l-.3.14c.64.72,1.27,1.44,1.89,2.17l2.13,2.48c.16.2.34.4.51.6.67.78,1.34,1.55,2,2.32a66.8,66.8,0,0,0,4.95,5.15,32.67,32.67,0,0,0,2.79,2.32,5.74,5.74,0,0,0,.41-.47A32.2,32.2,0,0,1,397.11,213.11Zm6.55-5.2a21.05,21.05,0,0,0-6.79-2.29,25.71,25.71,0,0,0-7.17-.22h0l-.43,0a34.5,34.5,0,0,0-6.58,1.51c-2.28.74-4.49,1.64-6.68,2.54a63.89,63.89,0,0,1-6.64,2.44,18.63,18.63,0,0,1-6.86.78,14.61,14.61,0,0,1-3.36-.77,23.63,23.63,0,0,1-3.23-1.29,35.13,35.13,0,0,1-5.88-3.8c-1.86-1.43-3.62-3-5.42-4.58-1.08-.93-2.16-1.85-3.29-2.73l-.95.54c1.22.93,2.4,1.94,3.57,3,3.55,3.11,7.14,6.4,11.52,8.54a25.72,25.72,0,0,0,3.38,1.32,15.37,15.37,0,0,0,3.57.78,19.45,19.45,0,0,0,7.21-.86c4.63-1.38,8.83-3.64,13.3-5.15a33.07,33.07,0,0,1,6.84-1.63h0l.45-.05a24.85,24.85,0,0,1,6.56.15,20.56,20.56,0,0,1,6.68,2.13c.53.28,1,.58,1.54.91l.23-.31C404.72,208.53,404.2,208.21,403.66,207.91Zm-27.92,23.53a34.59,34.59,0,0,0-7.09,1.13c-2.32.61-4.58,1.38-6.83,2.15l-.36.12-.67.23a54.24,54.24,0,0,1-5.73,1.69,18.44,18.44,0,0,1-6.89.36,13.78,13.78,0,0,1-3.31-1,25.19,25.19,0,0,1-3.16-1.48,35.83,35.83,0,0,1-5.64-4.14l-.3-.27c-.27-.23-.53-.47-.79-.71-1.13-1-2.22-2.13-3.33-3.2.56,1,1.14,2.09,1.73,3.11.11.11.22.22.34.32s.5.48.76.71a36.91,36.91,0,0,0,6.73,5.08,25.11,25.11,0,0,0,3.29,1.52,15.3,15.3,0,0,0,3.53,1,19.36,19.36,0,0,0,7.24-.43,61.7,61.7,0,0,0,6.2-1.89l.64-.22c2.24-.81,4.46-1.62,6.74-2.24a32.8,32.8,0,0,1,6.93-1.22,24.7,24.7,0,0,1,6.59.44c.18-.14.35-.29.53-.45A25.63,25.63,0,0,0,375.74,231.44Z" style="fill:#fff"></path><path d="M365.59,244.38c8.77-5,26.3-17.68,40.38-36.45,9.22-12.31,8.69-16.59,4.18-16.84C405.42,196.64,379.61,227.56,365.59,244.38Z" style="fill:#263238;opacity:0.1"></path><path d="M354.4,201a69.22,69.22,0,0,1-5.94,3.77c-2.07,1.27-4.18,2.47-6.29,3.67s-10.68,5.76-12.82,6.9a.09.09,0,0,1-.08-.15c2.07-1.27,10.28-6.3,12.35-7.47s4.13-2.37,6.23-3.49,4.26-2.4,6.49-3.31C354.39,200.87,354.45,200.93,354.4,201Z" style="fill:#263238"></path><path d="M371.21,273.91l72.22,7.62c.33-.35-3.82-71.17-24.26-88.58-3.23-2.75-11.84-6.87-21.16,5C388.35,210.31,371.21,273.91,371.21,273.91Z" style="fill:#407BFF"></path><path d="M443.2,276.52l-.15-.15c-1.35-1.31-2.67-2.65-4.05-3.91-.26-.24-.52-.48-.79-.71l-.3-.27a35.38,35.38,0,0,0-5.64-4.14,25.19,25.19,0,0,0-3.16-1.48,13.84,13.84,0,0,0-3.3-1,18.48,18.48,0,0,0-6.9.36,51.23,51.23,0,0,0-5.72,1.7l-.68.22-.36.12c-2.25.77-4.51,1.54-6.83,2.14a33.83,33.83,0,0,1-7.09,1.14,26,26,0,0,1-7.15-.64,21,21,0,0,1-6.64-2.69,25,25,0,0,1-5.38-4.72,42.62,42.62,0,0,1-3.37-4.45c0-.13.07-.26.11-.39a43.84,43.84,0,0,0,3.52,4.61,23.15,23.15,0,0,0,5.34,4.59,20.66,20.66,0,0,0,6.54,2.52,25.31,25.31,0,0,0,7,.52,33.45,33.45,0,0,0,6.93-1.22c2.28-.62,4.5-1.43,6.74-2.24l.64-.22a61.7,61.7,0,0,1,6.2-1.89,19.36,19.36,0,0,1,7.24-.43,15.3,15.3,0,0,1,3.53,1,25.11,25.11,0,0,1,3.29,1.52,37.33,37.33,0,0,1,6.74,5.08l.76.71c1,.9,1.89,1.83,2.82,2.74C443.13,275.52,443.17,276,443.2,276.52Zm-11.78-63c-2.75,1.05-5.46,2.17-8.2,3.17a45,45,0,0,1-6.76,2c-.59.12-1.18.22-1.77.29a2.09,2.09,0,0,1-.34,0,22.56,22.56,0,0,1-4.86.08,16.6,16.6,0,0,1-6.65-1.92,28.9,28.9,0,0,1-5.73-4.06,64.3,64.3,0,0,1-4.69-4.65l-.18.42a63.55,63.55,0,0,0,4.5,4.64,29.54,29.54,0,0,0,5.78,4.26,17.21,17.21,0,0,0,6.9,2.13,24.41,24.41,0,0,0,5.47-.11l.35,0c.46-.06.92-.14,1.38-.23a41.7,41.7,0,0,0,6.9-2c2.75-1,5.45-2.18,8.17-3.24Q431.57,213.91,431.42,213.53ZM439,243.34c-.54-.08-1.08-.18-1.62-.31a16.7,16.7,0,0,1-6.31-2.85,29.19,29.19,0,0,1-5.1-4.84,109.13,109.13,0,0,1-8.14-11.64c-.86-1.33-1.72-2.64-2.62-3.94l-.55-.79-.83-1.17a46.94,46.94,0,0,0-4.55-5.5,24.85,24.85,0,0,0-5.65-4.39,21.05,21.05,0,0,0-6.79-2.29,23.65,23.65,0,0,0-3-.34l-.27.58a22.93,22.93,0,0,1,3.2.29,20.56,20.56,0,0,1,6.68,2.13,23.38,23.38,0,0,1,5.6,4.26,49.11,49.11,0,0,1,5.29,6.47c.19.26.37.52.54.79.93,1.34,1.81,2.72,2.68,4.09,1.28,2,2.53,4,3.84,6a69.23,69.23,0,0,0,4.17,5.81,30.1,30.1,0,0,0,5.11,5,17.4,17.4,0,0,0,6.53,3.09c.65.15,1.3.28,2,.38C439.14,243.92,439.08,243.63,439,243.34ZM442.74,271l-3.23.55-1.3.23c-1,.18-2.09.35-3.14.51a46.18,46.18,0,0,1-7,.57,24.46,24.46,0,0,1-6.91-1,16.92,16.92,0,0,1-6.12-3.22,23.7,23.7,0,0,1-1.82-1.66c-.24-.23-.46-.47-.68-.71a33.63,33.63,0,0,1-2.3-2.76,110.64,110.64,0,0,1-7.44-12.11c-1.16-2.07-2.37-4.12-3.64-6.13a46.49,46.49,0,0,0-4.22-5.76,25,25,0,0,0-5.38-4.72,20,20,0,0,0-5.87-2.49c-.05.16-.11.33-.16.5a20,20,0,0,1,5.81,2.35,23.15,23.15,0,0,1,5.34,4.59,65.17,65.17,0,0,1,7.82,11.83c1.16,2.07,2.29,4.16,3.48,6.22a68,68,0,0,0,3.81,6,33.72,33.72,0,0,0,2.11,2.66c.21.24.42.48.64.71a25.6,25.6,0,0,0,2.06,2,17.21,17.21,0,0,0,6.33,3.47,25,25,0,0,0,7.13,1.07,40.7,40.7,0,0,0,7.16-.58c1.28-.2,2.55-.42,3.81-.65l1.27-.23,2.55-.47C442.79,271.5,442.77,271.24,442.74,271Z" style="fill:#fff"></path><path d="M429.13,207.32c3.83,8.82,16.11,47.22,14.5,54.88-2.9,13.88-46.86,20.91-56.27,24.11-3.92,1.34-14.1-27.51-10.82-30.49,2.22-2,36-6.8,37.54-9.74s1.87-22.71.42-38.58C413.11,192.38,421,188.63,429.13,207.32Z" style="fill:#ad6359"></path><path d="M367.91,254.59c-9.68.87-12,2.58-20.6-1-5.61-2.36-9.54.21-5.5,5.1,6.59,8,19.32,9.5,23.88,8.75Z" style="fill:#ad6359"></path><path d="M394.92,257.82s-11.9-3.4-22.31-3.49c-7.2-.06-22.87,1.55-33.95,20-2.63,4.37-3.27,12.46,3.61,6.88,4.89-4,6.79-7.94,10.05-9.73,0,0,.4,10.38,4.88,12.85a93.46,93.46,0,0,0,12.16,5.59,20.32,20.32,0,0,0,1.25-2.18s6.58,3.51,16.75-1.39Z" style="fill:#ad6359"></path><path d="M365.73,255.37c-2.86,2.46-8.84,7.77-12.23,13.81-3.75,6.72-9.18,20.66-4.2,23.39,3.66,2,6.2-3.15,6.2-3.15s-1,6.24,2.67,7.32c3.36,1,5.09-3.11,5.09-3.11s0,3.89,3.46,4.21c4.12.39,3.39-7.83,7.9-11C375.64,286.08,365.73,255.37,365.73,255.37Z" style="fill:#ad6359"></path><path d="M361.26,272a30.67,30.67,0,0,0-5.85,17.31c0,.16.13.24.16.1A75.49,75.49,0,0,1,361.32,272S361.29,271.94,361.26,272Z" style="fill:#263238"></path><path d="M367.93,276c-1.75,2.58-5.17,10.58-4.81,17.63,0,.16.14.23.16.09A80.8,80.8,0,0,1,368,276S368,275.93,367.93,276Z" style="fill:#263238"></path><path d="M380.31,252.56l13.34,34.77s45.93-6.73,51.79-25.24c2.43-7.64-8.73-42.55-15.95-56.22s-16.87-19.36-15.63,3.94.65,34.49-.53,35.54S380.31,252.56,380.31,252.56Z" style="fill:#407BFF"></path><path d="M438.88,271c-.27.23-.54.45-.82.66l-.15-.14a35.38,35.38,0,0,0-5.64-4.14,25.19,25.19,0,0,0-3.16-1.48,13.84,13.84,0,0,0-3.3-1,18.48,18.48,0,0,0-6.9.36,51.23,51.23,0,0,0-5.72,1.7l-.68.22-.36.12c-2.25.77-4.51,1.54-6.83,2.14a33.83,33.83,0,0,1-7.09,1.14,26,26,0,0,1-7.15-.64,22.82,22.82,0,0,1-4.73-1.63l-.23-.61a22.68,22.68,0,0,0,5.08,1.71,25.31,25.31,0,0,0,7,.52,33.45,33.45,0,0,0,6.93-1.22c2.28-.62,4.5-1.43,6.74-2.24l.64-.22a61.7,61.7,0,0,1,6.2-1.89,19.36,19.36,0,0,1,7.24-.43,15.3,15.3,0,0,1,3.53,1,25.11,25.11,0,0,1,3.29,1.52A34.87,34.87,0,0,1,438.88,271Zm-6.06-58c-3.23,1.19-6.39,2.53-9.6,3.7a45,45,0,0,1-6.76,2c-.59.12-1.18.22-1.77.29a2.09,2.09,0,0,1-.34,0h-.07l0,.85.58-.07.35,0c.46-.06.92-.14,1.38-.23a41.7,41.7,0,0,0,6.9-2c3.24-1.22,6.4-2.58,9.61-3.79C433,213.48,432.92,213.24,432.82,213Zm10.32,30.65a24,24,0,0,1-5.73-.62,16.7,16.7,0,0,1-6.31-2.85,29.19,29.19,0,0,1-5.1-4.84,109.13,109.13,0,0,1-8.14-11.64c-.86-1.33-1.72-2.64-2.62-3.94l-.55-.79c-.14-.21-.29-.41-.44-.62l0,.56a.61.61,0,0,1,.07.1c.19.26.37.52.54.79.93,1.34,1.81,2.72,2.68,4.09,1.28,2,2.53,4,3.84,6a69.23,69.23,0,0,0,4.17,5.81,30.1,30.1,0,0,0,5.11,5,17.4,17.4,0,0,0,6.53,3.09,25.41,25.41,0,0,0,6.14.68C443.28,244.22,443.21,243.94,443.14,243.65Zm-8.07,28.61a46.18,46.18,0,0,1-7,.57,24.46,24.46,0,0,1-6.91-1,16.92,16.92,0,0,1-6.12-3.22,23.7,23.7,0,0,1-1.82-1.66c-.24-.23-.46-.47-.68-.71a33.63,33.63,0,0,1-2.3-2.76,110.64,110.64,0,0,1-7.44-12.11c-.56-1-1.14-2-1.73-3l-.32.07c.6,1,1.18,2.06,1.75,3.1,1.16,2.07,2.29,4.16,3.48,6.22a68,68,0,0,0,3.81,6,33.72,33.72,0,0,0,2.11,2.66c.21.24.42.48.64.71a25.6,25.6,0,0,0,2.06,2,17.21,17.21,0,0,0,6.33,3.47,25,25,0,0,0,7.13,1.07,40.7,40.7,0,0,0,7.16-.58l1.06-.17c.53-.36,1.05-.74,1.55-1.12Z" style="fill:#fff"></path><path d="M420.19,280.73c9.78-4.7,17.64-9.06,21.64-13,1.53-1.48.94-.25-1.11,1.63-3.71,3.41-8.65,6.65-20.39,11.42C420.24,280.87,420.1,280.78,420.19,280.73Z" style="fill:#263238"></path><path d="M390.27,253.53c1.22,2.24,2.12,4.69,3.11,7s2,4.92,2.95,7.4,4.5,12.48,5.38,15c0,.11-.13.17-.18.06-1-2.45-5.14-12.14-6.07-14.57s-1.89-4.86-2.76-7.31a78,78,0,0,1-2.53-7.56C390.16,253.53,390.23,253.47,390.27,253.53Z" style="fill:#263238"></path><path d="M380.64,253.41l-.36-.84,0,0h.05c4.76-1.12,9.54-2.15,14.32-3.21s9.56-2.06,14.31-3.16c1.18-.28,2.37-.56,3.5-.92a3.71,3.71,0,0,0,.4-.15c.13,0,.25-.11.2-.09a2.25,2.25,0,0,0,.24-.68,16.16,16.16,0,0,0,.28-1.76c.25-2.4.37-4.84.49-7.28.19-4.88.29-9.77.4-14.66q.38,7.33.31,14.68c0,2.45-.07,4.9-.32,7.36a17.42,17.42,0,0,1-.28,1.86,2.82,2.82,0,0,1-.39,1,1.19,1.19,0,0,1-.57.39l-.46.18c-1.2.39-2.38.68-3.58,1-4.77,1.15-9.57,2.08-14.37,3s-9.63,1.75-14.47,2.48l0,0Z" style="fill:#263238"></path><path d="M414.5,228.91a14,14,0,0,1-1-2.92,12.74,12.74,0,0,1-.29-1.52,9.93,9.93,0,0,1-.1-1.55,26.76,26.76,0,0,1,.87,3A20.54,20.54,0,0,1,414.5,228.91Z" style="fill:#263238"></path><path d="M403,203c3.66,1.23,10.64-3.9,13.61-8.31.2-.3,0-3.71,0-7.85,0-2.51.06-5.32.29-7.87l-16.36,2.4a41,41,0,0,1,.63,9.94,6.39,6.39,0,0,1-.2,1c0,.05,0,.1,0,.17C400.44,194.45,399.46,201.77,403,203Z" style="fill:#ad6359"></path><path d="M400.55,181.34a40.8,40.8,0,0,1,.64,9.95,4.82,4.82,0,0,1-.21,1,.86.86,0,0,0,0,.17,9.48,9.48,0,0,0,1.64.24c9.32.65,13-10.63,13.86-13.72Z" style="fill:#263238"></path><path d="M420.57,160.32c1.05,5.86-3.9,21.85-8.37,25-6.47,4.58-16.08,3.94-19.72-3.61-3.54-7.32,3.28-28,8.18-30.82C407.86,146.82,419,151.65,420.57,160.32Z" style="fill:#ad6359"></path><path d="M403,168.55s.07.08.05.12c-.38,1.05-.65,2.32.19,3,0,0,0,.07,0,.06C402.1,171.16,402.47,169.48,403,168.55Z" style="fill:#263238"></path><path d="M404.32,167.75c1.75.44.75,3.91-.88,3.51S402.85,167.39,404.32,167.75Z" style="fill:#263238"></path><path d="M396.69,166.7s-.1,0-.11.08c-.28,1.08-.78,2.28-1.85,2.35,0,0-.05.06,0,.06C396,169.37,396.6,167.78,396.69,166.7Z" style="fill:#263238"></path><path d="M396.06,165.3c-1.69-.63-2.83,2.8-1.27,3.39S397.47,165.83,396.06,165.3Z" style="fill:#263238"></path><path d="M406.28,165.44c-.44-.26-.8-.57-1.21-.86s-.86-.56-1.06-1.12a.75.75,0,0,1,.37-.85,1.9,1.9,0,0,1,1.89.34,2.81,2.81,0,0,1,1.21,1.6A.82.82,0,0,1,406.28,165.44Z" style="fill:#263238"></path><path d="M395.67,162.24a14.63,14.63,0,0,0,1.48,0,2.4,2.4,0,0,0,1.52-.24.77.77,0,0,0,.22-.91,1.9,1.9,0,0,0-1.71-.87,2.78,2.78,0,0,0-1.93.55A.82.82,0,0,0,395.67,162.24Z" style="fill:#263238"></path><path d="M401.39,178.38c-.29.23-.59.57-1,.57a2.9,2.9,0,0,1-1.17-.39s-.08,0-.06.06a1.54,1.54,0,0,0,1.37.73,1.2,1.2,0,0,0,1-.91A.06.06,0,0,0,401.39,178.38Z" style="fill:#263238"></path><path d="M400.93,174.89a3.82,3.82,0,0,1-2.92.92,4.78,4.78,0,0,1-1.33-.32,4,4,0,0,1-.47-.21.27.27,0,0,1-.15-.3h0l.73-2.28c-.34.07-2.09.32-1.94-.11a57.92,57.92,0,0,1,4.64-10.67.11.11,0,0,1,.19.09c-1.07,3.43-2.74,6.64-3.87,10.07a6.61,6.61,0,0,1,1.88,0c.06,0-1,2.77-1,2.79a5.25,5.25,0,0,0,4.13-.07C401,174.73,401,174.83,400.93,174.89Z" style="fill:#263238"></path><path d="M397.2,175.22a4.52,4.52,0,0,0,1.35,1.88,2,2,0,0,0,1.17.43c.93,0,1.19-.76,1.24-1.48a5.41,5.41,0,0,0-.08-1.16A5.9,5.9,0,0,1,397.2,175.22Z" style="fill:#263238"></path><path d="M398.55,177.1a2,2,0,0,0,1.17.43c.93,0,1.19-.76,1.24-1.48A2.12,2.12,0,0,0,398.55,177.1Z" style="fill:#ff9cbd"></path><path d="M419.84,176.75c-4.57-.7-5.71-6.6-3.68-10.67,0,0-12.31-1.13-10.71-10.86a11.2,11.2,0,0,1-9.31,2.61L394.56,161c-1.14-.63-1.66-4.42,2-6.47,0,0,1.29-4.74,5.47-6.81a6.67,6.67,0,0,1,7.25.61,10.15,10.15,0,0,1,7.62-.15,8.67,8.67,0,0,1,5.18,6s5.66,2.48,5.72,6.91a8.94,8.94,0,0,1-2.76,6.77s1.11,2-.45,5.41C423.54,175.47,421.21,177,419.84,176.75Z" style="fill:#263238"></path><path d="M405.91,154.43a11.38,11.38,0,0,0-.56,2.34,9.91,9.91,0,0,0-.08,2.37,6.17,6.17,0,0,0,2,4.07,9.91,9.91,0,0,0,4.15,2.1c.79.16,1.56.36,2.35.47s1.6.18,2.4.3c-.8,0-1.61,0-2.43,0s-1.61-.22-2.42-.32a9.85,9.85,0,0,1-4.44-2.12,6.47,6.47,0,0,1-2-4.45A9.76,9.76,0,0,1,405.91,154.43Z" style="fill:#263238"></path><path d="M398.49,158.58a12.61,12.61,0,0,0,4.07-1.13,7.85,7.85,0,0,0,1.73-1.14,9.83,9.83,0,0,0,1.41-1.59,5.23,5.23,0,0,1-1.11,1.9,5.57,5.57,0,0,1-1.78,1.34,7.39,7.39,0,0,1-2.13.65A6.44,6.44,0,0,1,398.49,158.58Z" style="fill:#263238"></path><path d="M414.71,174.13s4.42-4.76,6.63-3.1-1.64,8.9-4.59,9.55a2.88,2.88,0,0,1-3.61-2.07Z" style="fill:#ad6359"></path><path d="M420.19,173.08s0,.06,0,.07c-2.08.52-3.37,2.21-4.37,4a1.59,1.59,0,0,1,2.42-.1c.05,0,0,.11-.06.09a1.78,1.78,0,0,0-2,.35,8.38,8.38,0,0,0-1.15,1.43c-.12.16-.42,0-.32-.17l0,0C415,176.19,417.46,173,420.19,173.08Z" style="fill:#263238"></path></g><g id="freepik--speech-bubble--inject-76"><path d="M341,134a22.61,22.61,0,0,0,24.85,20.14,22.36,22.36,0,0,0,12.93-5.84L390.1,150l-5.66-9.78A22.62,22.62,0,1,0,341,134Z" style="fill:#fff"></path><path d="M347.77,115.32a22.84,22.84,0,0,1,37.07,25l0-.39,5.63,9.8.41.73-.82-.13-11.3-1.74.26-.08a22.82,22.82,0,0,1-11.18,5.53,19.43,19.43,0,0,1-3.13.32,22.09,22.09,0,0,1-3.15-.06,22.83,22.83,0,0,1-6.09-1.45,21.91,21.91,0,0,1-5.45-3,24.09,24.09,0,0,1-2.39-2,25.48,25.48,0,0,1-2.05-2.36,22.75,22.75,0,0,1,2.21-30.14Zm-2.14,30.09a24,24,0,0,0,2.06,2.34,26.68,26.68,0,0,0,2.38,2,20.73,20.73,0,0,0,5.46,2.94,22.37,22.37,0,0,0,6,1.33,22.91,22.91,0,0,0,3.1,0,19.69,19.69,0,0,0,3.06-.38,22.2,22.2,0,0,0,10.83-5.58l.12-.1.15,0,11.33,1.59-.41.59-5.69-9.76-.11-.18L384,140a22.31,22.31,0,0,0-1.28-19.42,23.39,23.39,0,0,0-6.76-7.38,22.25,22.25,0,0,0-9.35-3.69,22.66,22.66,0,0,0-10.05.75,22.36,22.36,0,0,0-11,35.14Z" style="fill:#263238"></path><polygon points="360.11 144.54 350.44 134.76 353.69 131.56 359.33 137.27 371.06 118.89 374.9 121.34 360.11 144.54" style="fill:#407BFF"></polygon></g></svg>